Coordinates
version=1
nRows=12
nColumns=24
inDegrees=yes

Units are S.I. units (second, meters, Newtons, ...)
Angles are in degrees.

endheader
time	pelvis_tilt	pelvis_list	pelvis_rotation	pelvis_tx	pelvis_ty	pelvis_tz	hip_flexion_r	hip_adduction_r	hip_rotation_r	knee_angle_r	ankle_angle_r	subtalar_angle_r	mtp_angle_r	hip_flexion_l	hip_adduction_l	hip_rotation_l	knee_angle_l	ankle_angle_l	subtalar_angle_l	mtp_angle_l	lumbar_extension	lumbar_bending	lumbar_rotation
      1.09150000	     -4.83145885	      2.42953038	     -5.09258068	      0.34671975	      1.06278107	      0.32574345	     19.39153624	     -5.18407976	     -3.99082538	    -70.96900461	      1.10123932	     -7.83504292	      4.77162522	     16.16437115	      3.79484438	     -1.11744950	    -20.15937250	     11.98968788	      1.89799910	     -1.05376468	    -10.72200252	     -4.17416591	      0.99793927
      1.09566667	     -4.78221227	      2.30802922	     -5.03620304	      0.35205068	      1.06390909	      0.32557262	     19.85869708	     -5.03466243	     -4.12783422	    -70.71106540	      1.46847924	     -7.71979262	      4.75692182	     15.57744046	      3.71311648	     -1.07726269	    -19.73005648	     12.03716763	      2.00427101	     -1.04841150	    -10.79291793	     -4.00085243	      0.84006265
      1.09983333	     -4.74726872	      2.21463696	     -4.97097985	      0.35738363	      1.06495721	      0.32539590	     20.33772834	     -4.91888117	     -4.26785042	    -70.41567567	      1.84785154	     -7.53247493	      4.72761527	     15.00354277	      3.66378393	     -1.02050193	    -19.28542304	     12.07950411	      2.07568501	     -1.03748297	    -10.83021971	     -3.85829247	      0.57393810
      1.10400000	     -4.69853120	      2.08507569	     -4.89780335	      0.36268379	      1.06601068	      0.32520761	     20.78371547	     -4.76063302	     -4.42013522	    -70.05742461	      2.23427768	     -7.32582932	      4.72740556	     14.42194319	      3.57490438	     -0.96422814	    -18.85761926	     12.11874277	      2.17909554	     -1.03188315	    -10.90795691	     -3.66613734	      0.46018425
      1.10816667	     -4.65923967	      1.97185460	     -4.81853555	      0.36799790	      1.06700045	      0.32502021	     21.23061270	     -4.62163332	     -4.57406188	    -69.65433461	      2.63076586	     -7.05656555	      4.73278951	     13.84809671	      3.50303704	     -0.89747496	    -18.42132527	     12.16288258	      2.27268934	     -1.02512925	    -10.96791893	     -3.49657849	      0.27941870
      1.11233333	     -4.61312532	      1.87894281	     -4.73446026	      0.37332073	      1.06794360	      0.32481981	     21.66436412	     -4.51210598	     -4.73466969	    -69.21410009	      3.02883934	     -6.74346984	      4.74390457	     13.26488105	      3.45525783	     -0.82651170	    -17.97420000	     12.20748738	      2.33447423	     -1.01594364	    -11.01287317	     -3.34701579	      0.04901679
      1.11650000	     -4.58767245	      1.75298348	     -4.64092887	      0.37862426	      1.06882088	      0.32462965	     22.10159705	     -4.35771204	     -4.90626690	    -68.71427812	      3.42197241	     -6.47562926	      4.75941149	     12.71415711	      3.36503304	     -0.76186897	    -17.54955042	     12.21802681	      2.42888576	     -1.01068501	    -11.04721081	     -3.15070889	     -0.07931263
      1.12066667	     -4.51556647	      1.65773230	     -4.54718751	      0.38390607	      1.06971897	      0.32443027	     22.48617158	     -4.24609354	     -5.07073538	    -68.18042046	      3.82748401	     -6.08416302	      4.78557059	     12.10796225	      3.31636446	     -0.66649460	    -17.10571074	     12.28005059	      2.49193916	     -0.99989520	    -11.15177285	     -2.99986055	     -0.33136945
      1.12483333	     -4.46217861	      1.55598801	     -4.45010308	      0.38919340	      1.07054352	      0.32424015	     22.87817321	     -4.12366520	     -5.23947341	    -67.59912804	      4.21888612	     -5.73193596	      4.81637946	     11.52561062	      3.25533990	     -0.57756759	    -16.66886491	     12.31045748	      2.55134565	     -0.99011979	    -11.22444144	     -2.83595304	     -0.52931842
      1.12900000	     -4.44293524	      1.45155075	     -4.34623229	      0.39446856	      1.07124982	      0.32406157	     23.29687002	     -3.99194750	     -5.40987289	    -66.97538833	      4.60883287	     -5.36280131	      4.85165041	     10.98936664	      3.18643387	     -0.48204489	    -16.24893100	     12.34222109	      2.61363076	     -0.98021414	    -11.26266156	     -2.67504619	     -0.71867625
      1.13316667	     -4.42844816	      1.35978951	     -4.24269242	      0.39975357	      1.07189273	      0.32387529	     23.71381046	     -3.87651173	     -5.57940414	    -66.31606942	      4.99407566	     -4.98852309	      4.89091283	     10.45885920	      3.12976326	     -0.39259298	    -15.82747659	     12.37275350	      2.66833680	     -0.96990071	    -11.28771779	     -2.51865574	     -0.90920456
      1.13733333	     -4.38564957	      1.26286124	     -4.13951039	      0.40502668	      1.07253501	      0.32369392	     24.08640340	     -3.75716222	     -5.75017785	    -65.61070103	      5.36898496	     -4.63048658	      4.92662763	      9.90185403	      3.06586290	     -0.31685262	    -15.41206794	     12.39158918	      2.73656455	     -0.96194862	    -11.34913144	     -2.34581356	     -1.06335315
